<svg width="36" height="22" viewBox="0 0 36 22" fill="none" xmlns="http://www.w3.org/2000/svg">
<path d="M1.61168 12.2212L8.81061 15.1383V17.1803L0.288574 13.2318V12.0337L1.61168 12.2212ZM8.81061 9.8251L1.6221 12.7837L0.288574 12.9297V11.7211L8.81061 7.78308V9.8251Z" fill="#FEFEFE"/>
<path d="M34.5098 12.638L27.1025 9.7522V7.76233L35.9996 11.7003V12.9193L34.5098 12.638ZM27.1025 15.18L34.5307 12.2317L35.9996 12.0129V13.2214L27.1025 17.1699V15.18Z" fill="#FEFEFE"/>
<path fill-rule="evenodd" clip-rule="evenodd" d="M25.1657 2.49267C25.1245 3.14614 24.8302 3.82851 24.9122 4.46377C25.4263 5.37298 26.558 5.51805 27.4917 5.58038C28.1385 5.69595 28.1304 5.26767 28.087 4.78651C28.0896 4.01739 28.0922 3.24827 28.0949 2.47914C27.1185 2.48265 26.1417 2.46946 25.1657 2.49267ZM17.4664 4.32029C15.8767 4.59002 14.2653 5.34966 12.9429 6.26417C11.8784 7.09258 13.8566 7.89546 14.5743 8.02967C16.0182 8.04726 17.2989 7.07336 18.2474 6.06235C18.5571 5.63724 18.944 4.98661 18.5548 4.49398C18.2577 4.23635 17.8257 4.29885 17.4664 4.32029ZM20.849 6.63213C19.542 6.88099 18.2984 7.41975 17.198 8.1698C16.3913 8.4231 15.7264 9.3088 16.7261 9.75258C17.7758 10.589 18.9923 10.3841 19.959 9.81941C20.8443 9.2932 21.8005 8.64392 22.2101 7.65335C22.5969 6.56817 21.5989 6.52787 20.849 6.63213ZM24.5568 10.8371C24.3134 11.8537 23.2896 12.3159 22.7449 13.1215C22.2996 13.7091 22.5058 14.4013 23.0128 14.8638C23.2597 15.3757 23.6924 15.6618 24.1565 15.2172C25.3518 14.4046 25.6824 12.8218 25.6327 11.4504C25.721 10.884 25.0711 11.396 24.5568 10.8371ZM20.0084 12.7466C18.4212 13.0182 16.8337 13.7915 15.5106 14.7046C14.4835 15.5319 16.4179 16.3044 17.1415 16.4269C18.6122 16.429 19.9241 15.4812 20.854 14.4048C21.1774 13.9773 21.5694 13.1471 20.929 12.8072C20.6427 12.6859 20.3102 12.7215 20.0084 12.7466Z" fill="#0037FF"/>
<path fill-rule="evenodd" clip-rule="evenodd" d="M12.9432 6.26417C11.7225 6.75261 10.5449 7.34568 9.38213 7.9667C9.16598 8.77028 9.33929 9.76532 9.28326 10.6464C9.27904 14.2694 9.28111 17.8925 9.28041 21.5154C10.1782 21.5154 11.0761 21.5154 11.9739 21.5154C12.5176 21.0033 13.1989 20.6285 13.7895 20.1636C16.0641 18.5323 18.338 16.8947 20.6095 15.268C20.7767 15.3431 20.6696 14.2847 20.303 15.0198C19.4342 15.8374 18.281 16.5099 17.0604 16.4442C16.3678 16.2164 15.2512 15.8298 15.2442 14.981C15.7318 14.407 14.3447 15.2816 13.9652 15.4068C12.7312 15.9993 11.5264 16.6609 10.29 17.2423C10.5872 16.9232 11.1432 16.6257 11.5371 16.3091C14.3525 14.2881 17.1672 12.2593 19.9893 10.2399C20.5321 9.85877 21.0564 9.44304 21.616 9.08684C21.6671 9.28419 21.763 8.14332 21.3468 8.8457C20.4985 9.68661 19.3542 10.3126 18.1473 10.3211C17.4686 10.1151 16.0229 9.62235 16.3447 8.74595C16.5017 8.43841 14.8867 9.40153 15.6003 8.85844C16.3598 8.30346 17.1253 7.75833 17.8906 7.20914C18.2771 7.18003 18.1948 5.74432 17.6696 6.67044C16.7874 7.44564 15.6282 8.15492 14.4131 7.98682C13.7305 7.79032 12.9114 7.40969 12.6633 6.69588C12.5811 6.52442 13.1229 6.25735 12.9432 6.26417ZM18.0005 7.15047C17.9328 7.34409 18.1231 7.0797 18.0005 7.15047V7.15047Z" fill="#FEFEFE"/>
<path fill-rule="evenodd" clip-rule="evenodd" d="M25.7125 5.30477C25.3314 7.12471 24.9148 9.02926 24.5566 10.837C25.5859 12.1341 25.6856 10.0176 25.8657 9.41909C26.1566 8.16818 26.5012 7.22362 26.5377 5.92846C26.615 5.48654 26.0955 5.2188 25.7125 5.30477ZM26.8933 6.73187C26.8611 6.91849 26.9403 6.76695 26.8933 6.73187V6.73187ZM25.6926 10.8125C25.7422 10.7058 25.7422 10.9192 25.6926 10.8125V10.8125Z" fill="#FEFEFE"/>
<path fill-rule="evenodd" clip-rule="evenodd" d="M26.3878 5.51083C26.709 7.31446 25.6453 9.50539 25.2974 11.2058C26.0873 10.6245 26.6977 7.98701 26.8537 6.95466C26.8939 6.83656 26.9434 6.53941 26.9541 6.52876C27.0038 6.2781 27.4665 5.85352 27.4918 5.58036C27.7611 5.39025 26.168 5.35963 26.3878 5.51083ZM25.7328 10.8125C25.6832 10.7058 25.6832 10.9192 25.7328 10.8125V10.8125Z" fill="#89A2FF"/>
<path fill-rule="evenodd" clip-rule="evenodd" d="M12.9695 6.29419C12.5242 6.74009 12.6913 6.63118 13.0228 6.26038L12.9695 6.29419ZM17.7866 6.51504C17.2707 7.29027 15.4102 7.93852 15.176 7.98874C16.2951 7.77916 17.3382 7.08302 18.0722 6.26742C17.9556 6.31937 17.8863 6.44155 17.7866 6.51504ZM12.6635 6.76677C12.9416 7.43535 13.9527 7.87965 14.444 7.98326C13.7732 7.76721 12.9836 7.38388 12.6635 6.76677ZM17.96 7.1534C17.8196 7.31917 17.3196 7.56716 17.056 7.81021C16.4906 8.22733 15.9057 8.61487 15.3467 9.04233C15.7026 9.02702 16.7456 8.24794 16.2109 9.03847C16.664 9.81827 17.6505 10.3605 18.5499 10.311C19.7377 10.1245 20.8331 9.4678 21.6204 8.55448C20.6646 9.50028 19.401 10.3904 18.0027 10.2678C17.3259 10.1115 15.4766 9.15625 16.7137 8.48664C17.1499 8.12787 17.9019 7.93991 17.9871 7.30945C17.9692 7.23074 18.1159 7.1539 17.96 7.1534ZM14.5742 8.02968C15.0243 7.97091 15.0243 8.08852 14.5742 8.02968V8.02968ZM21.587 9.10659C19.8011 10.3508 18.0412 11.6436 16.2708 12.9101C14.2644 14.3461 12.2666 15.7873 10.2607 17.2221C11.0149 16.9678 11.7705 16.4712 12.5198 16.1282C13.5514 15.5824 14.6395 15.1512 15.6049 14.4882C17.5137 13.3645 19.5323 12.2939 21.0005 10.5747C21.3209 10.1989 21.6422 9.59402 21.6565 9.18716C21.6103 9.20018 21.6453 9.02445 21.587 9.10659ZM15.5106 14.7046C15.1893 15.0676 15.0588 15.3271 15.3922 14.8654C15.3863 14.9189 15.6628 14.5788 15.5106 14.7046ZM20.3986 14.8783C19.5522 15.7707 18.3005 16.4144 17.126 16.4578C18.4838 16.4677 19.7088 15.6617 20.6287 14.7109C20.5683 14.6379 20.446 14.8809 20.3986 14.8783ZM20.6572 15.1588C17.8138 17.2287 14.8722 19.3758 12.0191 21.4383C12.4686 21.5792 13.4472 21.6453 13.8938 21.0699C14.8441 20.4142 15.9124 19.932 16.8658 19.2674C18.2464 18.3716 19.7245 17.3924 20.5086 15.8868C20.546 15.6849 20.8235 15.3217 20.6572 15.1588ZM15.2458 15.2902C15.3778 15.8471 17.0272 16.4864 16.8483 16.3641C16.2401 16.1508 15.6368 15.8185 15.2458 15.2902Z" fill="#89A2FF"/>
</svg>
