<svg width="115" height="90" viewBox="0 0 115 90" fill="none" xmlns="http://www.w3.org/2000/svg">
<path d="M9.74936 89.3799C11.9294 89.3799 13.9894 88.7401 15.4894 87.6001C16.3194 86.9601 16.9594 86.1898 17.4194 85.2998C17.8794 84.3498 18.1294 83.2999 18.1294 82.1699C18.1294 80.0799 17.4194 78.4603 15.9194 77.2603C14.6894 76.2203 13.0294 75.5699 11.2794 74.8999C11.0994 74.8099 10.8794 74.7499 10.6994 74.6499C9.43937 74.1899 8.26937 73.7302 7.53937 73.2402C7.04937 72.8702 6.70938 72.47 6.70938 71.77C6.73938 70.2 8.23936 69.6499 9.52936 69.6499C10.9094 69.6499 12.5694 70.3599 14.0994 71.6099L14.9594 72.3198L17.9094 68.48L17.0794 67.8301C14.8094 65.9901 12.1994 65.04 9.52936 65.04C7.46936 65.04 5.53937 65.7202 4.09937 66.9702C2.62937 68.2602 1.79938 69.9799 1.79938 71.8799C1.79938 72.9599 2.04937 73.9701 2.47937 74.8301C2.90937 75.6301 3.45937 76.2999 4.25937 76.9199C5.60937 77.9899 7.26938 78.6698 9.01938 79.3198C9.10938 79.3498 9.23938 79.3799 9.35938 79.4399C10.6194 79.8999 11.6894 80.3298 12.3694 80.8198C12.9794 81.2498 13.1994 81.74 13.1994 82.48C13.1994 83.16 12.9494 83.6801 12.3994 84.0801C11.8194 84.5101 10.8694 84.7603 9.78937 84.7603C8.86937 84.7603 7.91936 84.5501 7.02936 84.1201C6.10936 83.6901 5.24937 83.0102 4.59937 82.2202L3.79938 81.21L0.609375 84.9902L1.24936 85.7002C3.47936 88.0602 6.51936 89.3799 9.74936 89.3799Z" fill="white"/>
<path d="M24.9292 78.6899V89.1899H29.7492V78.6899L38.0692 65.2402H32.3892L27.3592 73.6499L22.2892 65.2402H16.6992L24.9292 78.6899Z" fill="white"/>
<path d="M45.1886 89.3799C47.3686 89.3799 49.4286 88.7401 50.9286 87.6001C51.7586 86.9601 52.3986 86.1898 52.8586 85.2998C53.3186 84.3498 53.5686 83.2999 53.5686 82.1699C53.5686 80.0799 52.8586 78.4603 51.3586 77.2603C50.1286 76.2203 48.4686 75.5699 46.7186 74.8999C46.5386 74.8099 46.3186 74.7499 46.1386 74.6499C44.8786 74.1899 43.7186 73.7302 42.9786 73.2402C42.4886 72.8702 42.1486 72.47 42.1486 71.77C42.1786 70.2 43.6886 69.6499 44.9786 69.6499C46.3586 69.6499 48.0186 70.3599 49.5486 71.6099L50.4086 72.3198L53.3586 68.48L52.5286 67.8301C50.2586 65.9901 47.6486 65.04 44.9786 65.04C42.9186 65.04 40.9886 65.7202 39.5486 66.9702C38.0786 68.2602 37.2486 69.9799 37.2486 71.8799C37.2486 72.9599 37.4986 73.9701 37.9286 74.8301C38.3586 75.6301 38.9086 76.2999 39.7086 76.9199C41.0586 77.9899 42.7186 78.6698 44.4686 79.3198C44.5586 79.3498 44.6786 79.3799 44.8086 79.4399C46.0686 79.8999 47.1386 80.3298 47.8186 80.8198C48.4286 81.2498 48.6486 81.74 48.6486 82.48C48.6486 83.16 48.3986 83.6801 47.8486 84.0801C47.2686 84.5101 46.3086 84.7603 45.2386 84.7603C44.3186 84.7603 43.3686 84.5501 42.4786 84.1201C41.5586 83.6901 40.6986 83.0102 40.0486 82.2202L39.2486 81.21L36.0586 84.9902L36.6986 85.7002C38.9286 88.0602 41.9686 89.3799 45.1886 89.3799Z" fill="white"/>
<path d="M59.9397 69.8198V89.1899H64.7597V69.8198H71.3597V65.25H53.4297V69.8198H59.9397Z" fill="white"/>
<path d="M72.7793 65.2402V89.1899H88.2893V84.6201H77.5993V79.5498H88.2893V74.98H77.5993V69.8198H88.2893V65.25H72.7793V65.2402Z" fill="white"/>
<path d="M109.8 75.4102V89.2002H114.62V65.25H110.26L102.83 78.2998L95.3997 65.25H91.0098V89.2002H95.8598V75.4399L101.29 84.7998H104.33L109.8 75.4102Z" fill="white"/>
<path d="M85.2688 31.1201L66.7188 0.859863H79.3087L90.7188 19.7798L102.069 0.859863H114.819L96.1088 31.1099V54.75H85.2588L85.2688 31.1201Z" fill="white"/>
<path d="M27.5185 1.01025C15.5285 1.01025 5.68844 1.02002 5.64844 1.02002C5.60844 1.02002 5.46844 1.05006 5.33844 1.06006C5.20844 1.08006 4.97846 1.12992 4.82846 1.16992C4.67846 1.20992 4.44845 1.28008 4.31845 1.33008C4.18845 1.38008 3.93846 1.47982 3.76846 1.56982C3.59846 1.64982 3.34847 1.78988 3.20847 1.87988C3.06847 1.96988 2.84844 2.13023 2.71844 2.24023C2.58844 2.34023 2.35847 2.55996 2.20847 2.70996C2.05847 2.85996 1.85846 3.09021 1.76846 3.22021C1.66846 3.35021 1.52847 3.56018 1.45847 3.68018C1.37847 3.80018 1.26846 4.02016 1.19846 4.16016C1.12846 4.30016 1.03846 4.53016 0.988464 4.66016C0.938464 4.79016 0.868451 5.03996 0.818451 5.20996C0.778451 5.37996 0.718456 5.65006 0.698456 5.81006L0.648438 6.1001V27.8901C0.648438 45.8701 0.658467 49.7199 0.678467 49.9199C0.698467 50.0499 0.738463 50.2802 0.768463 50.4302C0.798463 50.5802 0.878446 50.85 0.938446 51.04C0.998446 51.22 1.12844 51.5302 1.21844 51.7202C1.31844 51.9102 1.46845 52.1901 1.56845 52.3301C1.66845 52.4801 1.81844 52.6798 1.89844 52.7798C1.97844 52.8798 2.14844 53.0599 2.27844 53.1899C2.39844 53.3099 2.58845 53.4798 2.68845 53.5698C2.78845 53.6498 2.98845 53.8001 3.12845 53.8901C3.26845 53.9901 3.52846 54.1302 3.69846 54.2202C3.86846 54.3102 4.12846 54.4202 4.26846 54.4702C4.40846 54.5202 4.60846 54.5899 4.69846 54.6099C4.78846 54.6399 4.93846 54.6699 5.01846 54.6899C5.09846 54.7099 5.29846 54.74 5.44846 54.77L5.71844 54.8101H27.5185C45.1085 54.8101 49.3685 54.7998 49.5385 54.7798C49.6585 54.7598 49.8684 54.7302 49.9984 54.7002C50.1384 54.6702 50.4184 54.5998 50.6184 54.5298C50.8584 54.4498 51.1185 54.34 51.3484 54.23C51.5485 54.13 51.7985 53.9902 51.9185 53.9102C52.0385 53.8302 52.2385 53.6898 52.3585 53.5898C52.4785 53.4898 52.7085 53.2801 52.8585 53.1201C53.0085 52.9601 53.2085 52.7299 53.2985 52.6099C53.3885 52.4899 53.5285 52.2899 53.5984 52.1699C53.6684 52.0499 53.7984 51.8299 53.8684 51.6699C53.9384 51.5099 54.0485 51.2701 54.0984 51.1401C54.1484 51.0001 54.2185 50.7501 54.2685 50.5801C54.3085 50.4101 54.3685 50.14 54.3885 49.98L54.4285 49.6899V27.9399C54.4285 9.20994 54.4284 6.14016 54.3984 5.91016C54.3784 5.76016 54.3485 5.5502 54.3285 5.4502C54.3085 5.3502 54.2485 5.14023 54.2085 4.99023C54.1685 4.84023 54.0984 4.64004 54.0584 4.54004C54.0184 4.44004 53.9285 4.2401 53.8585 4.1001C53.7885 3.9601 53.6785 3.7599 53.6085 3.6499C53.5385 3.5399 53.4085 3.34998 53.3185 3.22998C53.2285 3.10998 52.9985 2.84992 52.8185 2.66992C52.6385 2.48992 52.3785 2.2499 52.2385 2.1499C52.1085 2.0499 51.8685 1.8898 51.7085 1.7998C51.5485 1.7098 51.3184 1.57979 51.1884 1.52979C51.0584 1.46979 50.8384 1.39008 50.6884 1.33008C50.5384 1.28008 50.2984 1.21018 50.1584 1.18018C50.0184 1.15018 49.7684 1.10008 49.6184 1.08008C49.3484 1.02008 46.9685 1.02025 27.5185 1.01025ZM11.5584 3.58008H17.2484V11.5898L17.0884 11.73C16.9984 11.81 16.4485 12.27 15.8484 12.77L14.7685 13.6699L14.5284 13.4702C14.3984 13.3602 14.1685 13.1898 14.0185 13.0898C13.8785 12.9898 13.6485 12.8598 13.5085 12.7798C13.3685 12.7098 13.1685 12.6098 13.0685 12.5698C12.9685 12.5198 12.7584 12.4499 12.6184 12.3999C12.4784 12.3499 12.2485 12.29 12.1085 12.25C11.9685 12.22 11.7384 12.1699 11.5884 12.1499C11.3984 12.1199 11.1584 12.1099 10.8084 12.1099C10.5084 12.1099 10.2085 12.1201 10.0785 12.1401C9.95846 12.1601 9.75845 12.1902 9.62845 12.2202C9.49845 12.2502 9.29847 12.2901 9.17847 12.3301C9.05847 12.3601 8.83845 12.44 8.68845 12.5C8.53845 12.56 8.27846 12.68 8.10846 12.77C7.93846 12.86 7.69846 13.0001 7.57846 13.0801C7.45846 13.1601 7.25846 13.3102 7.13846 13.4102C7.01846 13.5102 6.81846 13.6901 6.69846 13.8101C6.57846 13.9301 6.39844 14.12 6.30844 14.23C6.21844 14.34 6.04847 14.5702 5.92847 14.7402C5.81847 14.9102 5.64846 15.2099 5.54846 15.3999C5.44846 15.5999 5.32846 15.8998 5.26846 16.0698C5.20846 16.2398 5.13845 16.5102 5.09845 16.6602C5.06845 16.8102 5.01844 17.0499 4.99844 17.1899C4.97844 17.3599 4.95847 17.6199 4.95847 17.9399C4.95847 18.2099 4.96846 18.5299 4.98846 18.6499C5.00846 18.7699 5.04846 19.0099 5.07846 19.1699C5.10846 19.3299 5.18846 19.5998 5.23846 19.7798C5.28846 19.9598 5.39844 20.2201 5.46844 20.3901C5.53844 20.5501 5.66845 20.8002 5.75845 20.9502C5.84845 21.1002 6.00844 21.3402 6.11844 21.4902C6.22844 21.6402 6.44845 21.8898 6.59845 22.0498C6.74845 22.2098 6.97846 22.42 7.10846 22.52C7.23846 22.62 7.43846 22.7701 7.54846 22.8501C7.65846 22.9301 7.87846 23.0499 8.01846 23.1299C8.15846 23.2099 8.37846 23.3099 8.48846 23.3599C8.60846 23.4099 8.81845 23.49 8.97845 23.54C9.12845 23.59 9.36846 23.6599 9.51846 23.6899C9.66846 23.7199 9.90845 23.77 10.0685 23.79C10.2485 23.81 10.5284 23.8301 10.8084 23.8301C11.0884 23.8301 11.3685 23.82 11.5385 23.79C11.6885 23.77 11.8985 23.7402 11.9885 23.7202C12.0785 23.7002 12.2585 23.6601 12.3885 23.6201C12.5085 23.5901 12.7385 23.5102 12.8885 23.4502C13.0385 23.3902 13.2885 23.2802 13.4485 23.2002C13.6085 23.1202 13.8484 22.9801 13.9984 22.8901C14.1384 22.7901 14.3684 22.6298 14.4984 22.5298C14.6284 22.4198 14.8485 22.2201 14.9885 22.0801C15.1285 21.9401 15.3085 21.7399 15.3885 21.6299C15.4685 21.5299 15.6184 21.3102 15.7184 21.1602C15.8184 21.0102 15.9685 20.7498 16.0485 20.5898C16.1285 20.4298 16.2385 20.18 16.2885 20.04C16.3385 19.9 16.4184 19.6402 16.4684 19.4702C16.5184 19.3002 16.5784 19.0098 16.5984 18.8198C16.6384 18.5598 16.6484 18.3802 16.6484 17.9902C16.6484 17.6002 16.6384 17.4202 16.5984 17.1602C16.5684 16.9802 16.5185 16.6998 16.4785 16.5498C16.4385 16.3998 16.3785 16.1801 16.3285 16.0601C16.2785 15.9301 16.2584 15.8398 16.2784 15.8198C16.2884 15.7998 16.8685 15.3102 17.5785 14.7202C18.2785 14.1302 19.0784 13.4702 19.3384 13.2402L19.8285 12.8301V3.6001H25.8684V11.25L25.6584 11.3198C25.5484 11.3598 25.3284 11.45 25.1884 11.52C25.0484 11.59 24.8385 11.7198 24.7285 11.7998C24.6185 11.8798 24.4285 12.0499 24.2985 12.1699C24.1685 12.2899 24.0084 12.4798 23.9384 12.5898C23.8584 12.6998 23.7484 12.8803 23.6884 13.0103C23.6184 13.1303 23.5385 13.34 23.4885 13.48C23.4385 13.62 23.3885 13.8202 23.3585 13.9302C23.3285 14.0902 23.3185 14.2401 23.3185 14.5801C23.3185 14.9201 23.3285 15.08 23.3585 15.23C23.3785 15.34 23.4285 15.5201 23.4585 15.6201C23.4885 15.7301 23.5784 15.9298 23.6484 16.0698C23.7184 16.2098 23.8385 16.4198 23.9185 16.5298C23.9985 16.6398 24.1284 16.8099 24.2184 16.8999C24.3084 16.9999 24.4685 17.14 24.5685 17.23C24.6785 17.32 24.8684 17.4498 24.9984 17.5298C25.1284 17.6098 25.3485 17.7103 25.4785 17.7603C25.6085 17.8103 25.8085 17.8699 25.9185 17.8999C26.0285 17.9299 26.2184 17.96 26.3384 17.98C26.4684 18 26.6884 18 26.8784 18C27.0584 17.99 27.2884 17.9702 27.3984 17.9502C27.5084 17.9302 27.6985 17.8798 27.8185 17.8398C27.9385 17.7998 28.1585 17.7101 28.2985 17.6401C28.4485 17.5701 28.6784 17.4198 28.8084 17.3198C28.9484 17.2198 29.1385 17.0499 29.2385 16.9399C29.3385 16.8299 29.4785 16.6601 29.5485 16.5601C29.6285 16.4601 29.7384 16.2601 29.8084 16.1201C29.8784 15.9901 29.9685 15.7701 30.0085 15.6401C30.0485 15.5101 30.0984 15.32 30.1184 15.23C30.1384 15.13 30.1585 14.9 30.1685 14.71C30.1785 14.45 30.1684 14.3001 30.1484 14.1001C30.1284 13.9601 30.0785 13.7499 30.0485 13.6299C30.0185 13.5199 29.9484 13.3302 29.8984 13.2202C29.8484 13.1102 29.7585 12.9201 29.6785 12.8101C29.6085 12.7001 29.5085 12.5502 29.4485 12.4702C29.3985 12.4002 29.2685 12.2602 29.1685 12.1602C29.0685 12.0602 28.8984 11.9098 28.7784 11.8198C28.6684 11.7298 28.4485 11.5998 28.2985 11.5298C28.1485 11.4598 27.9284 11.3598 27.8084 11.3198L27.5785 11.2402L27.5685 3.6001H38.3885C47.8185 3.6001 49.2284 3.60014 49.4084 3.64014C49.5184 3.66014 49.7085 3.71 49.8285 3.75C49.9485 3.79 50.1184 3.86016 50.2184 3.91016C50.3184 3.96016 50.4884 4.06014 50.5984 4.14014C50.7085 4.22014 50.8985 4.36998 51.0085 4.47998C51.1185 4.58998 51.2785 4.78014 51.3585 4.89014C51.4385 5.00014 51.5384 5.17002 51.5884 5.27002C51.6384 5.37002 51.7084 5.54016 51.7484 5.66016C51.7884 5.78016 51.8385 5.97008 51.8585 6.08008C51.8885 6.25008 51.8984 7.0602 51.8984 11.9502V17.6201H47.8885H43.8784L42.8484 16.3901L41.8185 15.1602L41.8684 15.1001C41.8984 15.0701 41.9884 14.9599 42.0685 14.8599C42.1485 14.7599 42.2985 14.5699 42.3885 14.4199C42.4885 14.2799 42.6285 14.0499 42.6985 13.8999C42.7785 13.7599 42.8885 13.5201 42.9485 13.3701C43.0085 13.2201 43.0884 12.9801 43.1284 12.8501C43.1684 12.7101 43.2185 12.5302 43.2385 12.4502C43.2585 12.3702 43.2885 12.1798 43.3185 12.0298C43.3484 11.8298 43.3585 11.6399 43.3585 11.1699C43.3585 10.7099 43.3484 10.5201 43.3185 10.3101C43.2985 10.1701 43.2484 9.93981 43.2184 9.7998C43.1884 9.6598 43.1185 9.42978 43.0685 9.27979C43.0185 9.12979 42.9185 8.89 42.8585 8.75C42.7985 8.61 42.6685 8.36996 42.5785 8.20996C42.4885 8.04996 42.3285 7.81994 42.2385 7.68994C42.1385 7.55994 41.9685 7.34998 41.8585 7.22998C41.7485 7.10998 41.5785 6.9301 41.4785 6.8501C41.3785 6.7701 41.2485 6.64984 41.1785 6.58984C41.1085 6.52984 40.9184 6.40004 40.7484 6.29004C40.5884 6.18004 40.2985 6.00992 40.1085 5.91992C39.9285 5.82992 39.6685 5.71992 39.5385 5.66992C39.4085 5.61992 39.1885 5.55025 39.0385 5.51025C38.8885 5.47025 38.6385 5.42014 38.4785 5.39014C38.2185 5.34014 38.0984 5.33984 37.5284 5.33984C36.9484 5.33984 36.8385 5.35014 36.5685 5.39014C36.3985 5.42014 36.1284 5.47978 35.9684 5.52979C35.8084 5.56979 35.5585 5.64996 35.4185 5.70996C35.2785 5.75996 35.0384 5.8702 34.8784 5.9502C34.7184 6.0302 34.4685 6.17979 34.3185 6.27979C34.1684 6.37979 33.9585 6.53012 33.8484 6.62012C33.7384 6.71012 33.5384 6.89002 33.4084 7.02002C33.2784 7.15002 33.0785 7.37 32.9785 7.5C32.8785 7.63 32.7284 7.82994 32.6584 7.93994C32.5884 8.04994 32.4684 8.24988 32.3984 8.37988C32.3284 8.50988 32.2184 8.73012 32.1584 8.87012C32.0984 9.01012 32.0184 9.23988 31.9684 9.37988C31.9184 9.51988 31.8585 9.76992 31.8185 9.91992C31.7885 10.0699 31.7384 10.3498 31.7184 10.5298C31.6884 10.7798 31.6884 10.9798 31.6884 11.3398C31.6984 11.6498 31.7184 11.9101 31.7484 12.1001C31.7784 12.2601 31.8284 12.5102 31.8684 12.6602C31.9084 12.8102 31.9784 13.0399 32.0284 13.1699C32.0784 13.2999 32.1985 13.5603 32.2885 13.7603C32.3785 13.9603 32.5484 14.2401 32.6484 14.3901C32.7484 14.5401 32.9284 14.7802 33.0284 14.9102C33.1384 15.0402 33.3485 15.2599 33.4885 15.3999C33.6285 15.5399 33.8685 15.7401 34.0185 15.8501C34.1685 15.9601 34.3885 16.1099 34.5185 16.1899C34.6485 16.2699 34.8284 16.3702 34.9084 16.4102C34.9884 16.4502 35.1684 16.5298 35.3084 16.5898C35.4484 16.6498 35.6485 16.72 35.7585 16.75C35.8585 16.78 36.0585 16.8401 36.1985 16.8701C36.3385 16.9001 36.5684 16.9502 36.7184 16.9702C36.9184 17.0002 37.1384 17.0103 37.5284 17.0103C37.9184 17.0103 38.1384 17.0002 38.3384 16.9702C38.4884 16.9502 38.7384 16.8999 38.8984 16.8599C39.0584 16.8199 39.2985 16.75 39.4285 16.71C39.5585 16.66 39.6785 16.6299 39.6785 16.6299C39.6785 16.6299 40.3585 17.4302 41.1685 18.4102L42.6584 20.1899H47.2784H51.8984V26.25H44.2484L44.2085 26.1099C44.1885 26.0399 44.1285 25.88 44.0785 25.77C44.0285 25.66 43.9384 25.4801 43.8784 25.3701C43.8184 25.2601 43.6985 25.09 43.6085 24.98C43.5185 24.87 43.3685 24.6998 43.2585 24.5898C43.1485 24.4898 42.9784 24.3498 42.8784 24.2798C42.7785 24.2098 42.6084 24.1098 42.4984 24.0498C42.3884 23.9898 42.1685 23.9001 42.0085 23.8501C41.8485 23.8001 41.6184 23.74 41.4984 23.71C41.3584 23.68 41.1485 23.6699 40.9285 23.6699C40.7185 23.6699 40.4984 23.68 40.3684 23.71C40.2484 23.73 40.0584 23.7801 39.9384 23.8101C39.8184 23.8401 39.6085 23.93 39.4585 24C39.3085 24.07 39.0884 24.1998 38.9684 24.2798C38.8484 24.3598 38.6384 24.5402 38.4984 24.6802C38.3584 24.8202 38.1785 25.0301 38.0984 25.1401C38.0184 25.2601 37.9085 25.4498 37.8484 25.5698C37.7884 25.6898 37.7085 25.8802 37.6685 25.9902C37.6285 26.1002 37.5685 26.3202 37.5385 26.4702C37.4985 26.6802 37.4885 26.8199 37.4885 27.1099C37.4885 27.3599 37.4984 27.5502 37.5284 27.7002C37.5484 27.8202 37.5984 28.0099 37.6284 28.1099C37.6584 28.2099 37.7285 28.3902 37.7685 28.4902C37.8185 28.6002 37.8985 28.7599 37.9585 28.8599C38.0185 28.9599 38.1185 29.1002 38.1785 29.1802C38.2385 29.2602 38.3584 29.4002 38.4384 29.4902C38.5284 29.5802 38.6785 29.7198 38.7885 29.7998C38.8885 29.8798 39.0584 29.9898 39.1484 30.0498C39.2384 30.1098 39.3985 30.19 39.4885 30.23C39.5885 30.27 39.7685 30.3399 39.8885 30.3799C40.0085 30.4199 40.2085 30.4702 40.3285 30.4902C40.4685 30.5202 40.6785 30.5298 40.9185 30.5298C41.1685 30.5298 41.3585 30.5202 41.5085 30.4902C41.6285 30.4702 41.8385 30.4101 41.9785 30.3701C42.1085 30.3301 42.3085 30.2399 42.4185 30.1899C42.5285 30.1399 42.6984 30.03 42.8084 29.96C42.9084 29.89 43.0785 29.7602 43.1685 29.6802C43.2585 29.6002 43.3985 29.4599 43.4785 29.3799C43.5585 29.2999 43.6885 29.12 43.7685 29C43.8485 28.87 43.9585 28.6798 44.0085 28.5698C44.0585 28.4598 44.1285 28.2802 44.1685 28.1602L44.2385 27.9502H51.8885V49.6099L51.8384 49.8398C51.8084 49.9698 51.7584 50.17 51.7184 50.29C51.6784 50.41 51.5985 50.5902 51.5385 50.7002C51.4785 50.8102 51.3685 50.9801 51.2885 51.0801C51.2085 51.1801 51.0585 51.3502 50.9485 51.4502C50.8385 51.5502 50.6785 51.69 50.5785 51.75C50.4885 51.81 50.3284 51.91 50.2184 51.96C50.1184 52.01 49.9384 52.0801 49.8185 52.1201C49.6985 52.1601 49.5084 52.21 49.3784 52.23C49.1784 52.26 48.5485 52.27 43.5085 52.27H37.8684V44.2402L38.1284 44.0298C38.2684 43.9098 38.8185 43.45 39.3585 43C39.8885 42.55 40.3384 42.1899 40.3384 42.1899C40.3484 42.1899 40.4585 42.2799 40.5785 42.3799C40.7085 42.4899 40.9484 42.6698 41.1184 42.7798C41.2884 42.8898 41.5784 43.0601 41.7484 43.1401C41.9184 43.2201 42.1885 43.3401 42.3285 43.3901C42.4785 43.4401 42.7184 43.5201 42.8784 43.5601C43.0285 43.6001 43.2585 43.6499 43.3885 43.6699C43.5185 43.6899 43.7785 43.72 43.9785 43.73C44.2285 43.74 44.4585 43.74 44.6985 43.73C44.8985 43.72 45.1884 43.6799 45.3684 43.6499C45.5384 43.6199 45.7784 43.5598 45.8984 43.5298C46.0184 43.4998 46.2284 43.4301 46.3784 43.3701C46.5184 43.3201 46.7784 43.2001 46.9384 43.1201C47.0984 43.0401 47.3284 42.9098 47.4384 42.8398C47.5484 42.7698 47.7484 42.63 47.8684 42.54C47.9884 42.45 48.2085 42.2601 48.3585 42.1201C48.4985 41.9801 48.7085 41.7599 48.8185 41.6299C48.9285 41.4999 49.0985 41.2599 49.1985 41.1099C49.2985 40.9599 49.4685 40.6602 49.5685 40.4502C49.6785 40.2302 49.8084 39.92 49.8784 39.71C49.9384 39.51 50.0284 39.21 50.0584 39.04C50.0884 38.87 50.1285 38.63 50.1385 38.52C50.1485 38.4 50.1584 38.1199 50.1584 37.8799C50.1584 37.6499 50.1485 37.35 50.1385 37.23C50.1285 37.1 50.0884 36.87 50.0584 36.71C50.0284 36.55 49.9484 36.2498 49.8784 36.0498C49.7984 35.8198 49.6884 35.5298 49.5685 35.2998C49.4685 35.0898 49.2984 34.8001 49.1884 34.6401C49.0884 34.4901 48.9184 34.2599 48.8084 34.1299C48.7084 34.0099 48.5084 33.7999 48.3684 33.6699C48.2284 33.5399 48.0385 33.3598 47.9285 33.2798C47.8285 33.1998 47.6385 33.06 47.5085 32.98C47.3785 32.9 47.1684 32.7702 47.0284 32.7002C46.8884 32.6302 46.6685 32.52 46.5185 32.46C46.3785 32.4 46.1385 32.32 45.9885 32.27C45.8385 32.22 45.5984 32.1601 45.4684 32.1401C45.3284 32.1101 45.1185 32.0801 45.0085 32.0601C44.8885 32.0401 44.5685 32.0298 44.2985 32.0298C43.9385 32.0298 43.7185 32.0398 43.5085 32.0698C43.3485 32.0898 43.0684 32.1502 42.8684 32.2002C42.6684 32.2502 42.3785 32.3399 42.2285 32.3999C42.0685 32.4599 41.8085 32.5799 41.6385 32.6699C41.4685 32.7599 41.2384 32.8902 41.1184 32.9702C40.9984 33.0502 40.7985 33.1898 40.6685 33.2998C40.5385 33.3998 40.3185 33.6002 40.1785 33.7402C40.0385 33.8802 39.8585 34.0799 39.7685 34.1899C39.6785 34.2999 39.5385 34.4901 39.4585 34.6201C39.3785 34.7401 39.2484 34.9498 39.1884 35.0698C39.1184 35.1898 39.0285 35.39 38.9785 35.5C38.9285 35.61 38.8485 35.8099 38.7985 35.9399C38.7485 36.0699 38.6884 36.3102 38.6484 36.4702C38.6084 36.6302 38.5585 36.8898 38.5385 37.0298C38.5085 37.2298 38.4984 37.4498 38.4984 37.8398C38.4984 38.2298 38.5085 38.4499 38.5385 38.6499C38.5585 38.7999 38.6084 39.05 38.6484 39.21C38.6884 39.37 38.7585 39.6102 38.7985 39.7402C38.8585 39.9102 38.8785 40 38.8585 40.02C38.8485 40.04 38.0485 40.71 37.0785 41.52L35.3185 42.9902V47.6099V52.23H29.2585V44.5801L29.4585 44.52C29.5685 44.49 29.7884 44.3998 29.9384 44.3198C30.0884 44.2398 30.3285 44.1 30.4585 44C30.5885 43.9 30.7884 43.7299 30.8984 43.6099C31.0084 43.4899 31.1684 43.3002 31.2484 43.1802C31.3284 43.0602 31.4385 42.8798 31.4885 42.7798C31.5385 42.6798 31.6084 42.5101 31.6584 42.3901C31.6984 42.2701 31.7584 42.0699 31.7784 41.9399C31.8084 41.8099 31.8384 41.5799 31.8384 41.4199C31.8484 41.2599 31.8385 41.0399 31.8185 40.8999C31.8085 40.7699 31.7685 40.5499 31.7385 40.4199C31.7085 40.2899 31.6384 40.0802 31.5884 39.9502C31.5384 39.8202 31.4385 39.62 31.3585 39.5C31.2885 39.38 31.1585 39.1998 31.0685 39.0898C30.9785 38.9798 30.8284 38.8202 30.7184 38.7202C30.6184 38.6202 30.4485 38.4899 30.3484 38.4199C30.2484 38.3499 30.0785 38.2499 29.9585 38.1899C29.8485 38.1299 29.6485 38.05 29.5185 38C29.3885 37.95 29.1885 37.9001 29.0785 37.8701C28.9185 37.8401 28.7784 37.8301 28.3984 37.8301C28.0284 37.8301 27.8785 37.8401 27.7285 37.8701C27.6185 37.8901 27.4385 37.94 27.3185 37.98C27.1985 38.02 26.9985 38.0999 26.8585 38.1699C26.7285 38.2399 26.5384 38.3502 26.4384 38.4102C26.3384 38.4802 26.1285 38.6598 25.9785 38.8198C25.7985 38.9998 25.6385 39.1901 25.5485 39.3301C25.4685 39.4501 25.3584 39.64 25.3084 39.75C25.2584 39.86 25.1784 40.0402 25.1484 40.1602C25.1084 40.2802 25.0585 40.4498 25.0385 40.5498C25.0185 40.6598 24.9885 40.8901 24.9885 41.1401C24.9785 41.4601 24.9885 41.6 25.0185 41.79C25.0385 41.92 25.0984 42.1598 25.1484 42.3198C25.1984 42.4798 25.2885 42.6898 25.3484 42.7998C25.4084 42.9098 25.4985 43.0599 25.5485 43.1299C25.5985 43.2099 25.6984 43.3402 25.7784 43.4302C25.8584 43.5202 26.0085 43.68 26.1085 43.77C26.2185 43.87 26.4084 44.0101 26.5284 44.1001C26.6584 44.1801 26.8385 44.2898 26.9485 44.3398C27.0485 44.3898 27.2284 44.4602 27.3384 44.4902L27.5385 44.5601L27.5485 52.2202H16.7385C7.31846 52.2202 5.93844 52.2202 5.74844 52.1802C5.62844 52.1602 5.43844 52.1201 5.33844 52.0801C5.22844 52.0501 5.06844 51.9799 4.96844 51.9399C4.86844 51.8999 4.69845 51.8 4.59845 51.73C4.48845 51.66 4.33845 51.54 4.25845 51.48C4.17845 51.41 4.04845 51.2802 3.97845 51.2002C3.89845 51.1102 3.79846 50.9701 3.73846 50.8901C3.67846 50.8101 3.59845 50.65 3.53845 50.54C3.48845 50.44 3.41845 50.2602 3.37845 50.1602C3.34845 50.0602 3.29844 49.89 3.27844 49.79L3.23846 49.6099L3.22845 43.9102L3.21844 38.21H7.24844H11.2685L12.2784 39.4199C12.8384 40.0899 13.2885 40.6399 13.2985 40.6499C13.2985 40.6599 13.2184 40.7701 13.1184 40.8901C13.0184 41.0101 12.8685 41.1998 12.7985 41.2998C12.7285 41.3998 12.6084 41.5902 12.5284 41.7202C12.4584 41.8502 12.3485 42.0502 12.2985 42.1602C12.2485 42.2702 12.1585 42.4801 12.1085 42.6201C12.0585 42.7601 11.9784 43.0102 11.9384 43.1802C11.8984 43.3502 11.8384 43.6501 11.8084 43.8301C11.7684 44.0901 11.7585 44.2901 11.7585 44.6401C11.7585 44.9301 11.7685 45.2101 11.7985 45.3901C11.8185 45.5501 11.8684 45.7902 11.8984 45.9302C11.9284 46.0702 11.9985 46.31 12.0485 46.46C12.0985 46.61 12.1884 46.8502 12.2484 46.9902C12.3084 47.1302 12.4285 47.36 12.5085 47.5C12.5885 47.64 12.7284 47.86 12.8084 47.98C12.8984 48.1 13.0685 48.3202 13.1985 48.4702C13.3285 48.6202 13.5284 48.8299 13.6584 48.9399C13.7884 49.0499 13.9885 49.2201 14.1085 49.3101C14.2285 49.4001 14.4085 49.5198 14.5085 49.5898C14.6085 49.6498 14.7784 49.7498 14.8784 49.7998C14.9784 49.8498 15.1684 49.95 15.3084 50C15.4484 50.06 15.6785 50.1499 15.8185 50.1899C15.9585 50.2399 16.1985 50.2998 16.3585 50.3398C16.5085 50.3698 16.7684 50.4199 16.9384 50.4399C17.1084 50.4599 17.4084 50.4702 17.5984 50.4702C17.7985 50.4702 18.0884 50.4499 18.2484 50.4399C18.4084 50.4199 18.6385 50.3901 18.7385 50.3701C18.8485 50.3501 19.0584 50.3 19.2184 50.25C19.3684 50.21 19.6185 50.1201 19.7585 50.0601C19.8985 50.0001 20.1084 49.9099 20.2184 49.8599C20.3284 49.8099 20.5284 49.6899 20.6584 49.6099C20.7884 49.5299 21.0184 49.38 21.1484 49.27C21.2884 49.17 21.5384 48.9403 21.7184 48.7603C21.8984 48.5803 22.1085 48.3502 22.1985 48.2402C22.2885 48.1302 22.4085 47.9599 22.4785 47.8599C22.5485 47.7599 22.6585 47.5699 22.7285 47.4399C22.7985 47.3099 22.9085 47.0802 22.9785 46.9302C23.0385 46.7802 23.1385 46.5301 23.1785 46.3901C23.2285 46.2401 23.2885 45.9998 23.3185 45.8398C23.3485 45.6898 23.3884 45.4598 23.4084 45.3398C23.4284 45.2098 23.4384 44.8999 23.4384 44.6299C23.4384 44.3599 23.4284 44.0399 23.4084 43.9199C23.3884 43.7999 23.3485 43.5702 23.3185 43.4102C23.2885 43.2502 23.2185 43.0099 23.1785 42.8599C23.1285 42.7199 23.0385 42.4801 22.9785 42.3301C22.9185 42.1801 22.8084 41.9699 22.7484 41.8599C22.6884 41.7499 22.5585 41.5299 22.4585 41.3799C22.3585 41.2299 22.1884 40.9999 22.0884 40.8799C21.9884 40.7499 21.7785 40.5399 21.6385 40.3999C21.4985 40.2599 21.2784 40.07 21.1484 39.98C21.0184 39.88 20.8285 39.7502 20.7085 39.6802C20.5985 39.6102 20.3485 39.4801 20.1685 39.3901C19.9885 39.3001 19.7284 39.1901 19.5984 39.1401C19.4685 39.0901 19.2285 39.0202 19.0485 38.9702C18.8785 38.9302 18.6185 38.8701 18.4885 38.8501C18.3485 38.8301 18.0385 38.7998 17.7885 38.7998C17.5085 38.7898 17.2285 38.8001 17.0485 38.8101C16.8885 38.8301 16.6485 38.8601 16.5185 38.8901C16.3785 38.9201 16.2085 38.9502 16.1385 38.9702C16.0685 38.9902 15.8884 39.0398 15.7484 39.0898C15.6084 39.1398 15.4784 39.1802 15.4684 39.1802C15.4584 39.1802 14.7884 38.3802 13.9684 37.4102L12.4885 35.6401L3.23846 35.6099L3.22845 32.5801L3.21844 29.5498L7.04846 29.5601L10.8784 29.5698L10.9485 29.7798C10.9885 29.8998 11.0684 30.09 11.1284 30.21C11.1884 30.33 11.2984 30.5199 11.3684 30.6299C11.4484 30.7499 11.6185 30.9501 11.7885 31.1201C11.9985 31.3301 12.1485 31.4598 12.3285 31.5698C12.4685 31.6598 12.6784 31.7801 12.8084 31.8301C12.9284 31.8801 13.1285 31.9502 13.2385 31.9902C13.3585 32.0202 13.5485 32.0698 13.6685 32.0898C13.7885 32.1098 14.0184 32.1201 14.1884 32.1201C14.3584 32.1201 14.5985 32.1001 14.7385 32.0801C14.8685 32.0601 15.0984 32.0002 15.2484 31.9502C15.3984 31.9002 15.5985 31.82 15.6985 31.77C15.7985 31.72 15.9485 31.6298 16.0385 31.5698C16.1285 31.5098 16.2784 31.4001 16.3684 31.3301C16.4584 31.2501 16.5884 31.1398 16.6584 31.0698C16.7284 30.9998 16.8585 30.8402 16.9485 30.7202C17.0385 30.6002 17.1784 30.38 17.2484 30.23C17.3184 30.08 17.4085 29.87 17.4485 29.75C17.4885 29.63 17.5384 29.4398 17.5584 29.3198C17.5884 29.1598 17.5984 28.9999 17.5984 28.6699C17.5984 28.3099 17.5885 28.19 17.5485 28C17.5185 27.87 17.4684 27.6901 17.4384 27.5801C17.4084 27.4801 17.3285 27.3002 17.2685 27.1802C17.2085 27.0602 17.1085 26.89 17.0485 26.79C16.9885 26.69 16.8585 26.5302 16.7685 26.4302C16.6785 26.3302 16.5285 26.1798 16.4285 26.0898C16.3285 25.9998 16.1685 25.8801 16.0685 25.8101C15.9685 25.7501 15.7985 25.6398 15.6785 25.5898C15.5585 25.5298 15.3784 25.4599 15.2784 25.4199C15.1784 25.3899 14.9885 25.3401 14.8585 25.3101C14.6685 25.2701 14.5485 25.2603 14.1785 25.2603C13.7985 25.2603 13.6884 25.2701 13.4984 25.3101C13.3684 25.3401 13.1785 25.3899 13.0785 25.4199C12.9785 25.4499 12.7884 25.5401 12.6584 25.6001C12.5284 25.6601 12.3385 25.7698 12.2385 25.8398C12.1385 25.9098 11.9285 26.09 11.7685 26.25C11.6085 26.41 11.4285 26.6202 11.3585 26.7202C11.2885 26.8202 11.1784 27.0101 11.1184 27.1401C11.0484 27.2701 10.9685 27.4801 10.9285 27.6001L10.8484 27.8301H3.19846V17.1201C3.19846 9.64012 3.20845 6.34018 3.22845 6.18018C3.23845 6.05018 3.27844 5.84998 3.30844 5.72998C3.33844 5.60998 3.40847 5.41004 3.45847 5.29004C3.50847 5.17004 3.62844 4.96008 3.71844 4.83008C3.80844 4.70008 3.96846 4.49988 4.07846 4.37988C4.18846 4.26988 4.35847 4.1198 4.45847 4.0498C4.55847 3.9798 4.72845 3.87982 4.84845 3.81982C4.96845 3.75982 5.14846 3.68014 5.26846 3.64014C5.37846 3.60014 5.55846 3.55004 5.66846 3.54004C5.83846 3.59004 6.73844 3.58008 11.5584 3.58008ZM37.4885 7.85986C37.7085 7.85986 37.9285 7.87014 38.0485 7.89014C38.1585 7.91014 38.3485 7.95023 38.4585 7.99023C38.5785 8.02023 38.7884 8.11018 38.9384 8.18018C39.0784 8.25018 39.2984 8.36996 39.4084 8.45996C39.5284 8.53996 39.7085 8.69982 39.8285 8.81982C39.9385 8.92982 40.0985 9.11022 40.1685 9.22021C40.2385 9.32022 40.3585 9.50988 40.4185 9.62988C40.4885 9.74988 40.5684 9.9701 40.6184 10.1001C40.6684 10.2401 40.7185 10.4501 40.7385 10.5801C40.7585 10.7201 40.7784 10.9301 40.7784 11.1401C40.7784 11.3401 40.7585 11.5599 40.7385 11.6899C40.7185 11.8099 40.6684 12.0101 40.6284 12.1401C40.5884 12.2701 40.5085 12.4698 40.4485 12.5898C40.3885 12.7098 40.2985 12.87 40.2385 12.96C40.1785 13.04 40.0685 13.1998 39.9785 13.2998C39.8885 13.3998 39.7484 13.5499 39.6484 13.6299C39.5484 13.7099 39.3884 13.8402 39.2784 13.9102C39.1684 13.9802 38.9885 14.0799 38.8885 14.1299C38.7785 14.1799 38.6084 14.2498 38.4984 14.2798C38.3984 14.3098 38.2185 14.3599 38.1085 14.3799C37.9585 14.4099 37.8085 14.4199 37.4885 14.4199C37.1585 14.4199 37.0285 14.4101 36.8484 14.3701C36.7285 14.3401 36.5484 14.3 36.4684 14.27C36.3884 14.24 36.1884 14.1601 36.0284 14.0801C35.8684 14.0001 35.6485 13.87 35.5385 13.79C35.4285 13.71 35.2384 13.5402 35.1184 13.4102C34.9984 13.2902 34.8485 13.1002 34.7685 12.9902C34.6985 12.8802 34.5985 12.7101 34.5485 12.6201C34.4985 12.5301 34.4285 12.3602 34.3885 12.2402C34.3485 12.1202 34.2885 11.92 34.2585 11.79C34.2185 11.6 34.2085 11.4599 34.2085 11.1699C34.2085 10.8899 34.2184 10.7301 34.2484 10.5601C34.2684 10.4401 34.3185 10.2401 34.3585 10.1201C34.3985 10.0001 34.4784 9.81019 34.5284 9.7002C34.5884 9.5802 34.6785 9.42008 34.7385 9.33008C34.7985 9.24008 34.9184 9.09023 34.9984 8.99023C35.0784 8.89023 35.2384 8.74016 35.3384 8.66016C35.4384 8.57016 35.5985 8.45014 35.6985 8.39014C35.7885 8.33014 35.9585 8.24018 36.0685 8.18018C36.1785 8.13018 36.3685 8.05025 36.4885 8.01025C36.6085 7.97025 36.7984 7.92016 36.9084 7.91016C37.0484 7.87016 37.2985 7.85986 37.4885 7.85986ZM26.7784 12.8301C27.0084 12.8401 27.1085 12.8501 27.2285 12.8901C27.3085 12.9201 27.4585 12.9798 27.5485 13.0298C27.6585 13.0898 27.7785 13.1798 27.9185 13.3198C28.0485 13.4498 28.1585 13.5799 28.2085 13.6899C28.2585 13.7799 28.3285 13.9298 28.3585 14.0298C28.4085 14.1898 28.4185 14.2498 28.4185 14.5498C28.4185 14.8498 28.4085 14.9001 28.3585 15.0601C28.3285 15.1601 28.2585 15.3202 28.2085 15.4102C28.1485 15.5102 28.0485 15.6403 27.9285 15.7603C27.8185 15.8603 27.6685 15.99 27.5785 16.04C27.4985 16.09 27.3385 16.1599 27.2285 16.1899C27.0585 16.2499 26.9984 16.25 26.7184 16.25C26.4484 16.25 26.3684 16.2402 26.2184 16.2002C26.1184 16.1702 25.9684 16.1101 25.8684 16.0601C25.7484 16.0001 25.6385 15.9103 25.4885 15.7603C25.2985 15.5803 25.2584 15.5098 25.1584 15.3198C25.0984 15.1998 25.0385 15.0199 25.0085 14.9199C24.9885 14.8299 24.9684 14.65 24.9684 14.54C24.9684 14.43 24.9784 14.2602 24.9984 14.1602C25.0184 14.0702 25.0784 13.89 25.1484 13.77C25.2384 13.58 25.2985 13.5101 25.4785 13.3301C25.6585 13.1501 25.7285 13.1 25.9185 13C26.0385 12.94 26.2185 12.8701 26.2985 12.8501C26.4285 12.8401 26.5684 12.8301 26.7784 12.8301ZM10.8684 14.6699C11.0684 14.6799 11.2785 14.7 11.4285 14.73C11.5585 14.76 11.7684 14.8101 11.8784 14.8501C11.9984 14.8901 12.1585 14.96 12.2385 15C12.3185 15.04 12.4984 15.15 12.6184 15.23C12.7584 15.32 12.9384 15.4799 13.0884 15.6299C13.2384 15.7799 13.3985 15.9801 13.4885 16.1001C13.5685 16.2201 13.6785 16.41 13.7285 16.52C13.7785 16.63 13.8585 16.8102 13.8885 16.9302C13.9285 17.0402 13.9784 17.2399 13.9984 17.3599C14.0284 17.5099 14.0385 17.7002 14.0385 17.9302C14.0385 18.1602 14.0284 18.35 13.9984 18.5C13.9784 18.62 13.9184 18.8302 13.8784 18.9702C13.8284 19.1002 13.7485 19.3002 13.6985 19.4102C13.6485 19.5202 13.5584 19.67 13.4984 19.75C13.4484 19.83 13.3284 19.9801 13.2484 20.0801C13.1684 20.1801 13.0084 20.3402 12.8984 20.4302C12.7884 20.5202 12.6285 20.6402 12.5385 20.7002C12.4485 20.7602 12.2985 20.8501 12.1985 20.8901C12.0985 20.9401 11.9184 21.0101 11.7784 21.0601C11.6484 21.1001 11.4285 21.1602 11.2985 21.1802C11.1585 21.2002 10.9284 21.2202 10.7484 21.2202C10.5684 21.2202 10.3385 21.2002 10.1985 21.1802C10.0685 21.1602 9.84844 21.1001 9.71844 21.0601C9.58844 21.0201 9.39846 20.9401 9.29846 20.8901C9.19846 20.8401 9.04847 20.7499 8.95847 20.6899C8.86847 20.6299 8.70844 20.5199 8.61844 20.4399C8.51844 20.3599 8.36844 20.2099 8.27844 20.1099C8.18844 20.0099 8.06845 19.8503 8.00845 19.7603C7.94845 19.6703 7.85846 19.5101 7.79846 19.3901C7.73846 19.2701 7.66845 19.1 7.62845 19C7.59845 18.9 7.54846 18.7098 7.51846 18.5698C7.47846 18.3798 7.46844 18.2402 7.46844 17.9502C7.46844 17.7102 7.47845 17.5101 7.50845 17.3701C7.52845 17.2501 7.57844 17.0602 7.61844 16.9302C7.65844 16.8102 7.72844 16.6298 7.77844 16.5298C7.82844 16.4298 7.92846 16.2399 8.01846 16.1099C8.10846 15.9799 8.25846 15.7899 8.35846 15.6899C8.45846 15.5799 8.62845 15.4301 8.72845 15.3501C8.83845 15.2701 9.00846 15.1498 9.10846 15.0898C9.20846 15.0298 9.38845 14.9399 9.50845 14.8999C9.62845 14.8499 9.81845 14.7903 9.93845 14.7603C10.0584 14.7303 10.2384 14.6902 10.3384 14.6802C10.4684 14.6702 10.6884 14.6599 10.8684 14.6699ZM41.0085 25.3501C41.1085 25.3601 41.2585 25.3799 41.3285 25.3999C41.3985 25.4199 41.5584 25.48 41.6884 25.54C41.8784 25.63 41.9484 25.6801 42.1184 25.8501C42.2584 25.9901 42.3484 26.11 42.4084 26.23C42.4584 26.32 42.5185 26.4598 42.5385 26.5298C42.5585 26.5998 42.5985 26.7499 42.6085 26.8599C42.6285 27.0099 42.6285 27.1103 42.6085 27.2603C42.5885 27.3703 42.5485 27.5499 42.5085 27.6499C42.4685 27.7499 42.3885 27.91 42.3285 28C42.2685 28.09 42.1484 28.2301 42.0584 28.3101C41.9684 28.3901 41.8385 28.5 41.7585 28.54C41.6885 28.58 41.5485 28.6402 41.4585 28.6802C41.3685 28.7102 41.2085 28.7503 41.1085 28.7603C41.0085 28.7803 40.8485 28.78 40.7585 28.77C40.6685 28.76 40.5285 28.7402 40.4485 28.7202C40.3685 28.7002 40.2285 28.6501 40.1385 28.6001C40.0485 28.5601 39.8985 28.4599 39.8185 28.3999C39.7384 28.3299 39.6085 28.2099 39.5485 28.1299C39.4785 28.0499 39.3884 27.8998 39.3384 27.7998C39.2884 27.7098 39.2384 27.5602 39.2184 27.4902C39.1984 27.4102 39.1785 27.2699 39.1685 27.1699C39.1585 27.0499 39.1684 26.92 39.1884 26.77C39.2084 26.65 39.2485 26.4799 39.2885 26.3999C39.3185 26.3199 39.3884 26.1899 39.4384 26.1099C39.4884 26.0299 39.6085 25.8901 39.6985 25.8101C39.7885 25.7301 39.9184 25.6198 39.9984 25.5698C40.0784 25.5198 40.2185 25.4599 40.3185 25.4199C40.4184 25.3899 40.5684 25.3498 40.6484 25.3398C40.7484 25.3498 40.8985 25.3401 41.0085 25.3501ZM14.1884 27.02C14.2884 27.02 14.4485 27.0298 14.5385 27.0498C14.6285 27.0698 14.7584 27.1101 14.8384 27.1401C14.9184 27.1701 15.0384 27.2398 15.1184 27.2798C15.1884 27.3198 15.3184 27.4303 15.3984 27.5103C15.4784 27.5903 15.5984 27.7401 15.6584 27.8301C15.7184 27.9201 15.7985 28.0899 15.8285 28.1899L15.8984 28.3799V29.0898L15.8285 29.2798C15.7985 29.3898 15.7285 29.5401 15.6785 29.6201C15.6285 29.7001 15.5085 29.8499 15.4185 29.9399C15.3285 30.0299 15.1784 30.15 15.0884 30.21C14.9984 30.26 14.8385 30.3399 14.7285 30.3799L14.5385 30.4502H14.1785C13.8585 30.4502 13.8084 30.4401 13.6484 30.3901C13.5584 30.3601 13.4085 30.2902 13.3185 30.2402C13.2285 30.1902 13.0885 30.0903 13.0085 30.0103C12.9285 29.9303 12.8084 29.7902 12.7484 29.7002C12.6884 29.6102 12.6185 29.4699 12.5785 29.3999C12.5485 29.3199 12.5085 29.1701 12.4785 29.0601C12.4485 28.9101 12.4385 28.7999 12.4485 28.6499C12.4585 28.5299 12.4784 28.3801 12.4984 28.3101C12.5184 28.2401 12.5684 28.1003 12.6184 28.0103C12.6684 27.9103 12.7484 27.7699 12.8084 27.6899C12.8684 27.6099 12.9685 27.4999 13.0385 27.4399C13.1085 27.3799 13.2085 27.31 13.2585 27.27C13.3085 27.24 13.4184 27.1799 13.4984 27.1499C13.5784 27.1199 13.7184 27.0801 13.8084 27.0601C13.9184 27.0401 14.0784 27.02 14.1884 27.02ZM44.4084 34.5898C44.5784 34.5998 44.8085 34.6201 44.9185 34.6401C45.0285 34.6601 45.2084 34.7102 45.3084 34.7402C45.4184 34.7702 45.5885 34.8401 45.6985 34.8901C45.8085 34.9401 46.0085 35.0501 46.1385 35.1401C46.2885 35.2401 46.4684 35.3898 46.6284 35.5498C46.7884 35.7098 46.9385 35.89 47.0385 36.04C47.1285 36.17 47.2385 36.37 47.2885 36.48C47.3385 36.59 47.4084 36.7701 47.4384 36.8701C47.4684 36.9801 47.5185 37.16 47.5385 37.27C47.5685 37.41 47.5785 37.6001 47.5785 37.8501C47.5785 38.0901 47.5685 38.2902 47.5385 38.4302C47.5185 38.5502 47.4685 38.7501 47.4285 38.8701C47.3885 38.9901 47.3084 39.1898 47.2484 39.3198C47.1884 39.4398 47.0785 39.6202 47.0085 39.7202C46.9385 39.8202 46.8285 39.97 46.7585 40.04C46.6885 40.12 46.5585 40.2501 46.4585 40.3301C46.3585 40.4101 46.2085 40.5301 46.1284 40.5801C46.0484 40.6401 45.8785 40.73 45.7585 40.79C45.6385 40.85 45.4384 40.9302 45.3084 40.9702C45.1784 41.0102 44.9785 41.0601 44.8585 41.0801C44.7285 41.1001 44.5084 41.1201 44.3084 41.1201C44.0984 41.1201 43.8884 41.1001 43.7484 41.0801C43.6284 41.0601 43.4184 41 43.2784 40.96C43.1484 40.92 42.9484 40.8398 42.8384 40.7798C42.7284 40.7198 42.5784 40.6401 42.4984 40.5801C42.4184 40.5301 42.2685 40.4098 42.1685 40.3198C42.0585 40.2298 41.9085 40.0702 41.8185 39.9702C41.7285 39.8702 41.6185 39.7201 41.5685 39.6401C41.5185 39.5601 41.4284 39.4098 41.3684 39.2998C41.3184 39.1898 41.2284 38.9899 41.1884 38.8599C41.1384 38.7299 41.0885 38.5201 41.0685 38.3901C41.0385 38.2501 41.0284 38.0401 41.0284 37.8301C41.0284 37.6301 41.0485 37.4098 41.0685 37.2798C41.0885 37.1598 41.1385 36.9601 41.1785 36.8301C41.2185 36.7001 41.2985 36.5001 41.3585 36.3901C41.4185 36.2801 41.4985 36.1201 41.5385 36.0601C41.5785 35.9901 41.6885 35.85 41.7685 35.75C41.8485 35.65 41.9785 35.5099 42.0485 35.4399C42.1185 35.3699 42.2684 35.2502 42.3684 35.1802C42.4684 35.1102 42.6185 35.01 42.6985 34.96C42.7785 34.91 42.9384 34.84 43.0584 34.79C43.1684 34.74 43.3684 34.6801 43.4984 34.6401C43.6284 34.6101 43.8184 34.5701 43.9084 34.5601C44.0184 34.5901 44.2384 34.5898 44.4084 34.5898ZM28.3684 39.5498C28.5084 39.5498 28.6885 39.5598 28.7685 39.5898C28.8485 39.6098 28.9785 39.6502 29.0385 39.6802C29.1085 39.7102 29.2185 39.7701 29.2885 39.8101C29.3585 39.8601 29.4885 39.96 29.5685 40.04C29.6485 40.12 29.7584 40.2501 29.8084 40.3301C29.8584 40.4101 29.9285 40.5399 29.9585 40.6099C29.9885 40.6899 30.0284 40.8299 30.0584 40.9399C30.0784 41.0399 30.0984 41.1898 30.0984 41.2798C30.0984 41.3598 30.0785 41.5099 30.0685 41.6099C30.0485 41.7099 30.0085 41.8399 29.9885 41.9199C29.9585 41.9899 29.8885 42.13 29.8285 42.23C29.7685 42.33 29.6484 42.4698 29.5584 42.5498C29.4684 42.6298 29.3384 42.7298 29.2484 42.7798C29.1684 42.8298 29.0084 42.9002 28.9084 42.9302C28.7484 42.9802 28.6784 42.9902 28.4084 42.9902C28.1784 42.9902 28.0585 42.9802 27.9485 42.9502C27.8685 42.9302 27.7184 42.8698 27.6184 42.8198C27.5284 42.7698 27.3785 42.6799 27.2885 42.6099C27.1985 42.5399 27.0784 42.4198 27.0284 42.3398C26.9684 42.2698 26.8884 42.13 26.8384 42.04C26.7884 41.95 26.7384 41.8002 26.7184 41.7202C26.6884 41.6102 26.6785 41.48 26.6785 41.27C26.6785 41.02 26.6885 40.94 26.7385 40.79C26.7685 40.69 26.8284 40.5399 26.8784 40.4399C26.9384 40.3199 27.0285 40.2101 27.1785 40.0601C27.3485 39.8901 27.4384 39.8202 27.5884 39.7402C27.6984 39.6902 27.8585 39.6198 27.9585 39.5898C28.0585 39.5698 28.1984 39.5498 28.3684 39.5498ZM17.6685 41.4199C17.9685 41.4299 18.1385 41.44 18.2885 41.48C18.3985 41.51 18.5984 41.5599 18.7184 41.6099C18.8484 41.6599 19.0384 41.7398 19.1484 41.7998C19.2584 41.8598 19.4184 41.96 19.4984 42.02C19.5784 42.08 19.7085 42.18 19.7885 42.25C19.8585 42.31 19.9885 42.4498 20.0785 42.5498C20.1585 42.6498 20.2785 42.7999 20.3285 42.8799C20.3785 42.9599 20.4785 43.12 20.5385 43.25C20.5985 43.37 20.6784 43.5702 20.7184 43.6802C20.7584 43.8002 20.8085 43.9801 20.8285 44.1001C20.8585 44.2501 20.8684 44.42 20.8684 44.71C20.8684 45.03 20.8585 45.1598 20.8185 45.3398C20.7885 45.4698 20.7385 45.65 20.7085 45.75C20.6785 45.85 20.5985 46.0299 20.5385 46.1499C20.4785 46.2699 20.3785 46.44 20.3185 46.54C20.2585 46.63 20.1485 46.7799 20.0685 46.8599C19.9885 46.9399 19.8585 47.0802 19.7685 47.1602C19.6785 47.2402 19.5285 47.3599 19.4285 47.4199C19.3385 47.4799 19.1684 47.5801 19.0584 47.6401C18.9484 47.7001 18.7585 47.7701 18.6385 47.8101C18.5185 47.8501 18.3484 47.8999 18.2484 47.9199C18.1484 47.9399 17.9184 47.9702 17.7484 47.9702C17.5484 47.9802 17.3384 47.9702 17.1884 47.9502C17.0584 47.9302 16.8385 47.8901 16.7085 47.8501C16.5685 47.8101 16.3485 47.7302 16.2085 47.6602C16.0685 47.6002 15.8685 47.4802 15.7585 47.4102C15.6485 47.3402 15.4684 47.1901 15.3484 47.0801C15.2284 46.9701 15.0685 46.7899 14.9885 46.6899C14.9085 46.5899 14.7984 46.4301 14.7484 46.3301C14.6984 46.2401 14.6084 46.0599 14.5584 45.9399C14.5084 45.8199 14.4384 45.6102 14.4084 45.4702C14.3784 45.3302 14.3385 45.1 14.3285 44.96C14.3185 44.82 14.3185 44.5802 14.3285 44.4302C14.3385 44.2902 14.3784 44.0499 14.4084 43.9199C14.4384 43.7799 14.5185 43.5502 14.5785 43.4102C14.6385 43.2702 14.7584 43.0399 14.8484 42.8999C14.9384 42.7599 15.1084 42.5502 15.2184 42.4302C15.3284 42.3102 15.5184 42.1501 15.6284 42.0601C15.7384 41.9801 15.9084 41.8698 15.9984 41.8198C16.0884 41.7698 16.2385 41.7002 16.3185 41.6602C16.3985 41.6202 16.5685 41.57 16.6785 41.54C16.7885 41.51 16.9685 41.4702 17.0685 41.4502C17.1985 41.4202 17.3785 41.4099 17.6685 41.4199Z" fill="#67382A"/>
</svg>
