<svg width="29" height="26" viewBox="0 0 29 26" fill="none" xmlns="http://www.w3.org/2000/svg">
<path d="M23.8438 8.38227C23.5352 8.27614 23.2239 8.17782 22.9103 8.0874C22.963 7.87167 23.0115 7.65854 23.0545 7.44917C23.7612 4.01093 23.2992 1.24102 21.7213 0.329032C20.2085 -0.545259 17.7343 0.366388 15.2355 2.5461C14.9893 2.7613 14.7485 2.98271 14.5134 3.2101C14.356 3.05889 14.1958 2.91062 14.0329 2.76535C11.4141 0.434741 8.78915 -0.54753 7.21296 0.367069C5.70145 1.24409 5.25387 3.848 5.89006 7.10649C5.95335 7.42921 6.02482 7.75027 6.10439 8.06935C5.73282 8.17517 5.37429 8.28781 5.03116 8.40771C1.96078 9.4807 0 11.1622 0 12.9063C0 14.7077 2.10499 16.5145 5.30292 17.6101C5.56218 17.6986 5.82361 17.7806 6.08694 17.856C6.00142 18.1996 5.92549 18.5456 5.85925 18.8935C5.25274 22.0955 5.72637 24.6378 7.2338 25.5093C8.79074 26.4093 11.4039 25.4843 13.9483 23.2549C14.1546 23.0736 14.3564 22.8872 14.5535 22.6959C14.8081 22.9421 15.0695 23.1812 15.3374 23.4128C17.8021 25.5386 20.2363 26.397 21.7423 25.5231C23.2978 24.6206 23.8033 21.8894 23.147 18.5665C23.0953 18.3062 23.0373 18.0472 22.9731 17.7896C23.1566 17.7351 23.3367 17.6791 23.5123 17.6207C26.8369 16.5167 29 14.7318 29 12.9063C29 11.1558 26.9759 9.46299 23.8438 8.38227ZM23.1227 16.4421C22.9641 16.4947 22.8015 16.5454 22.6356 16.5948C22.2686 15.4302 21.7733 14.1919 21.1672 12.9124C21.7456 11.6634 22.2218 10.4408 22.5785 9.28382C22.8752 9.36988 23.1631 9.4606 23.4406 9.55632C26.1242 10.4824 27.7612 11.8514 27.7612 12.9063C27.7612 14.03 25.9933 15.4887 23.1227 16.4421ZM21.9317 18.8077C22.2219 20.2769 22.2633 21.6054 22.071 22.644C21.8984 23.5772 21.5511 24.1993 21.1215 24.4486C20.2077 24.9788 18.2532 24.2896 16.1454 22.4715C15.8962 22.2562 15.6531 22.0339 15.4162 21.805C16.2334 20.9093 17.0501 19.868 17.8471 18.7114C19.2491 18.5867 20.5736 18.3828 21.7747 18.1045C21.8326 18.3376 21.8849 18.5721 21.9317 18.8077ZM9.88673 24.3569C8.99385 24.6729 8.28267 24.682 7.85277 24.4336C6.93802 23.9048 6.55774 21.8634 7.07645 19.1252C7.13811 18.8016 7.20871 18.4798 7.28818 18.1601C8.47604 18.4236 9.7909 18.613 11.1962 18.7272C11.9986 19.8589 12.8388 20.8991 13.6856 21.8099C13.5057 21.9844 13.3215 22.1545 13.1331 22.32C12.0079 23.3057 10.8804 24.0052 9.88673 24.3569ZM5.70371 16.4352C4.28962 15.9507 3.1218 15.3211 2.32136 14.634C1.60202 14.0167 1.23896 13.4037 1.23896 12.9063C1.23896 11.8479 2.81323 10.4978 5.43897 9.58028C5.75763 9.46901 6.09113 9.36398 6.43721 9.26542C6.80016 10.4486 7.27617 11.6856 7.85062 12.9365C7.26869 14.206 6.78589 15.4628 6.41942 16.6599C6.17905 16.5909 5.94041 16.5159 5.70371 16.4352ZM7.10591 6.86793C6.56091 4.07622 6.92284 1.97031 7.83374 1.44177C8.80388 0.878813 10.9492 1.68146 13.2104 3.69392C13.3579 3.82544 13.5029 3.95964 13.6455 4.09643C12.8029 5.00331 11.9704 6.03577 11.1751 7.16077C9.81118 7.28748 8.50561 7.49095 7.30528 7.76357C7.23133 7.46679 7.16485 7.16807 7.10591 6.86793ZM19.6152 9.96406C19.3317 9.4732 19.0377 8.98852 18.7333 8.51035C19.6586 8.62764 20.5451 8.78331 21.3776 8.97361C21.1277 9.7766 20.8162 10.616 20.4495 11.4767C20.1815 10.967 19.9033 10.4627 19.6152 9.96406ZM14.5139 4.98389C15.0853 5.60441 15.6576 6.29715 16.2205 7.04881C15.0786 6.99476 13.9349 6.99453 12.793 7.04813C13.3564 6.30339 13.9336 5.61157 14.5139 4.98389ZM9.37991 9.97258C9.09539 10.4672 8.82242 10.9683 8.56123 11.4757C8.20054 10.6181 7.89185 9.77478 7.6398 8.96044C8.46721 8.77491 9.34956 8.62322 10.2689 8.50808C9.96121 8.98917 9.66478 9.47754 9.37991 9.97258ZM10.2953 17.3929C9.34548 17.2866 8.44987 17.1428 7.6227 16.9623C7.87871 16.1334 8.1942 15.2721 8.5627 14.3961C8.82493 14.9039 9.09903 15.4053 9.38479 15.9002C9.67864 16.4088 9.98291 16.9071 10.2953 17.3929ZM14.5481 20.9162C13.9609 20.2813 13.3752 19.5788 12.8033 18.8232C13.3586 18.845 13.9246 18.8562 14.5 18.8562C15.0911 18.8562 15.6754 18.8429 16.2505 18.8172C15.6858 19.5864 15.1157 20.2899 14.5481 20.9162ZM20.4612 14.3514C20.8488 15.2371 21.1756 16.0938 21.435 16.9084C20.5942 17.1008 19.6864 17.2556 18.7298 17.3707C19.0363 16.8836 19.3331 16.3905 19.6201 15.8916C19.9118 15.3846 20.1923 14.871 20.4612 14.3514ZM18.547 15.2712C18.1077 16.0361 17.6437 16.7865 17.1558 17.5211C16.2719 17.5839 15.3861 17.615 14.5 17.6146C13.5975 17.6146 12.7197 17.5864 11.8744 17.5314C11.3737 16.7985 10.9009 16.0468 10.4569 15.278C10.015 14.5133 9.60235 13.7321 9.21962 12.936C9.60137 12.1397 10.0129 11.358 10.4533 10.5928L10.4531 10.5929C10.8934 9.82738 11.3624 9.07892 11.8593 8.34912C12.7217 8.28372 13.6061 8.24965 14.4999 8.24965C15.3978 8.24965 16.2834 8.28406 17.1456 8.34991C17.6374 9.07863 18.1035 9.82451 18.5429 10.5862C18.9847 11.3498 19.4017 12.1276 19.7931 12.9184C19.4057 13.7172 18.9901 14.502 18.547 15.2712ZM21.1026 1.40475C22.0736 1.96611 22.4513 4.22985 21.8412 7.19846C21.8022 7.38785 21.7585 7.58077 21.7109 7.7764C20.5076 7.49799 19.2012 7.291 17.8333 7.16235C17.0365 6.02498 16.2108 4.99093 15.3819 4.09575C15.5991 3.88586 15.8215 3.68142 16.0489 3.48261C18.1899 1.61515 20.1909 0.877791 21.1026 1.40475ZM14.5 10.3107C15.9302 10.3107 17.0896 11.4728 17.0896 12.9063C17.0896 14.3398 15.9302 15.502 14.5 15.502C13.0698 15.502 11.9104 14.3398 11.9104 12.9063C11.9104 11.4728 13.0698 10.3107 14.5 10.3107Z" fill="white"/>
</svg>
